<svg xmlns="http://www.w3.org/2000/svg" viewBox="0 0 900 560" font-family="'Segoe UI', system-ui, sans-serif">
  <!-- Background -->
  <rect width="900" height="560" fill="#0b0e14"/>
  
  <!-- Header bar -->
  <rect x="0" y="0" width="900" height="48" fill="#141c32" stroke="#1c2744" stroke-width="1"/>
  <text x="20" y="30" fill="#38bdf8" font-size="16" font-weight="700">RR</text>
  <text x="44" y="30" fill="#e2e8f0" font-size="14" font-weight="600">ReqRight</text>
  
  <!-- Nav tabs - Risks active -->
  <rect x="200" y="10" width="80" height="28" rx="4" fill="#1c2744"/>
  <text x="216" y="28" fill="#94a3b8" font-size="11">Dashboard</text>
  <rect x="288" y="10" width="65" height="28" rx="4" fill="#1c2744"/>
  <text x="303" y="28" fill="#94a3b8" font-size="11">Author</text>
  <rect x="361" y="10" width="72" height="28" rx="4" fill="#1c2744"/>
  <text x="374" y="28" fill="#94a3b8" font-size="11">Register</text>
  <rect x="441" y="10" width="55" height="28" rx="4" fill="#1c2744"/>
  <text x="450" y="28" fill="#94a3b8" font-size="11">Trace</text>
  <rect x="504" y="10" width="55" height="28" rx="4" fill="#38bdf8"/>
  <text x="514" y="28" fill="#0b0e14" font-size="11" font-weight="600">Risks</text>
  
  <!-- Add Risk button -->
  <rect x="790" y="10" width="90" height="28" rx="4" fill="#38bdf8"/>
  <text x="815" y="28" fill="#0b0e14" font-size="11" font-weight="600">+ Add Risk</text>

  <!-- ==================== RISK MATRIX SUMMARY BAR ==================== -->
  <rect x="20" y="60" width="860" height="50" rx="8" fill="#141c32" stroke="#1c2744" stroke-width="1"/>
  <text x="35" y="82" fill="#e2e8f0" font-size="12" font-weight="600">Risk Register</text>
  <text x="140" y="82" fill="#4b5f82" font-size="10">14 risks identified</text>
  
  <!-- Severity badges -->
  <rect x="460" y="72" width="80" height="22" rx="11" fill="#ef4444" opacity="0.2" stroke="#ef4444" stroke-width="1" stroke-opacity="0.4"/>
  <text x="500" y="87" fill="#ef4444" font-size="10" font-weight="600" text-anchor="middle">Critical: 2</text>
  
  <rect x="550" y="72" width="70" height="22" rx="11" fill="#f97316" opacity="0.2" stroke="#f97316" stroke-width="1" stroke-opacity="0.4"/>
  <text x="585" y="87" fill="#f97316" font-size="10" font-weight="600" text-anchor="middle">High: 3</text>
  
  <rect x="630" y="72" width="85" height="22" rx="11" fill="#eab308" opacity="0.2" stroke="#eab308" stroke-width="1" stroke-opacity="0.4"/>
  <text x="672" y="87" fill="#eab308" font-size="10" font-weight="600" text-anchor="middle">Medium: 5</text>
  
  <rect x="725" y="72" width="65" height="22" rx="11" fill="#22c55e" opacity="0.2" stroke="#22c55e" stroke-width="1" stroke-opacity="0.4"/>
  <text x="757" y="87" fill="#22c55e" font-size="10" font-weight="600" text-anchor="middle">Low: 4</text>

  <!-- ==================== RISK CARD 1: CRITICAL ==================== -->
  <rect x="20" y="122" width="860" height="130" rx="8" fill="#141c32" stroke="#ef4444" stroke-width="1" stroke-opacity="0.4"/>
  
  <!-- Left color bar -->
  <rect x="20" y="122" width="5" height="130" rx="2" fill="#ef4444"/>
  
  <!-- Risk header -->
  <text x="40" y="147" fill="#e2e8f0" font-size="13" font-weight="600">RSK-0001</text>
  <rect x="110" y="134" width="60" height="18" rx="9" fill="#ef4444" opacity="0.2" stroke="#ef4444" stroke-width="1" stroke-opacity="0.4"/>
  <text x="140" y="147" fill="#ef4444" font-size="9" font-weight="700" text-anchor="middle">Critical</text>
  <text x="185" y="147" fill="#e2e8f0" font-size="12">Single Point of Failure — Central Hub Dependency</text>
  
  <!-- Risk details row -->
  <text x="40" y="172" fill="#4b5f82" font-size="9">Likelihood</text>
  <rect x="95" y="162" width="40" height="16" rx="3" fill="#0b0e14"/>
  <text x="115" y="174" fill="#ef4444" font-size="10" font-weight="600" text-anchor="middle">5</text>
  
  <text x="150" y="172" fill="#4b5f82" font-size="9">Impact</text>
  <rect x="188" y="162" width="40" height="16" rx="3" fill="#0b0e14"/>
  <text x="208" y="174" fill="#ef4444" font-size="10" font-weight="600" text-anchor="middle">5</text>
  
  <text x="245" y="172" fill="#4b5f82" font-size="9">Score</text>
  <rect x="278" y="162" width="40" height="16" rx="3" fill="#ef4444" opacity="0.2"/>
  <text x="298" y="174" fill="#ef4444" font-size="10" font-weight="700" text-anchor="middle">25</text>
  
  <text x="340" y="172" fill="#4b5f82" font-size="9">Category</text>
  <text x="395" y="172" fill="#94a3b8" font-size="10">Technical</text>
  
  <text x="470" y="172" fill="#4b5f82" font-size="9">Owner</text>
  <text x="505" y="172" fill="#94a3b8" font-size="10">J. Smith</text>
  
  <text x="590" y="172" fill="#4b5f82" font-size="9">Due</text>
  <text x="615" y="172" fill="#94a3b8" font-size="10">2026-03-15</text>
  
  <!-- Description -->
  <text x="40" y="198" fill="#94a3b8" font-size="10">All sensor data routes through a single hub. Hub failure disables the entire security system with no fallback.</text>
  
  <!-- Mitigations -->
  <text x="40" y="220" fill="#4b5f82" font-size="9">Mitigations:</text>
  <rect x="110" y="208" width="65" height="18" rx="4" fill="#38bdf8" opacity="0.1" stroke="#38bdf8" stroke-width="1" stroke-opacity="0.3"/>
  <text x="142" y="221" fill="#38bdf8" font-size="9" font-weight="600" text-anchor="middle">SYS-0005</text>
  <rect x="182" y="208" width="65" height="18" rx="4" fill="#38bdf8" opacity="0.1" stroke="#38bdf8" stroke-width="1" stroke-opacity="0.3"/>
  <text x="214" y="221" fill="#38bdf8" font-size="9" font-weight="600" text-anchor="middle">SYS-0012</text>
  <rect x="254" y="208" width="70" height="18" rx="4" fill="#38bdf8" opacity="0.1" stroke="#38bdf8" stroke-width="1" stroke-opacity="0.3"/>
  <text x="289" y="221" fill="#38bdf8" font-size="9" font-weight="600" text-anchor="middle">SUB-0003</text>
  
  <!-- Expand indicator -->
  <text x="845" y="147" fill="#4b5f82" font-size="14">▾</text>
  
  <!-- ==================== RISK CARD 2: HIGH ==================== -->
  <rect x="20" y="264" width="860" height="130" rx="8" fill="#141c32" stroke="#f97316" stroke-width="1" stroke-opacity="0.4"/>
  
  <!-- Left color bar -->
  <rect x="20" y="264" width="5" height="130" rx="2" fill="#f97316"/>
  
  <!-- Risk header -->
  <text x="40" y="289" fill="#e2e8f0" font-size="13" font-weight="600">RSK-0002</text>
  <rect x="110" y="276" width="45" height="18" rx="9" fill="#f97316" opacity="0.2" stroke="#f97316" stroke-width="1" stroke-opacity="0.4"/>
  <text x="132" y="289" fill="#f97316" font-size="9" font-weight="700" text-anchor="middle">High</text>
  <text x="168" y="289" fill="#e2e8f0" font-size="12">Network Latency — Remote Monitoring Delay</text>
  
  <!-- Risk details row -->
  <text x="40" y="314" fill="#4b5f82" font-size="9">Likelihood</text>
  <rect x="95" y="304" width="40" height="16" rx="3" fill="#0b0e14"/>
  <text x="115" y="316" fill="#f97316" font-size="10" font-weight="600" text-anchor="middle">4</text>
  
  <text x="150" y="314" fill="#4b5f82" font-size="9">Impact</text>
  <rect x="188" y="304" width="40" height="16" rx="3" fill="#0b0e14"/>
  <text x="208" y="316" fill="#f97316" font-size="10" font-weight="600" text-anchor="middle">3</text>
  
  <text x="245" y="314" fill="#4b5f82" font-size="9">Score</text>
  <rect x="278" y="304" width="40" height="16" rx="3" fill="#f97316" opacity="0.2"/>
  <text x="298" y="316" fill="#f97316" font-size="10" font-weight="700" text-anchor="middle">12</text>
  
  <text x="340" y="314" fill="#4b5f82" font-size="9">Category</text>
  <text x="395" y="314" fill="#94a3b8" font-size="10">Technical</text>
  
  <text x="470" y="314" fill="#4b5f82" font-size="9">Owner</text>
  <text x="505" y="314" fill="#94a3b8" font-size="10">A. Chen</text>
  
  <text x="590" y="314" fill="#4b5f82" font-size="9">Due</text>
  <text x="615" y="314" fill="#94a3b8" font-size="10">2026-04-01</text>
  
  <!-- Description -->
  <text x="40" y="340" fill="#94a3b8" font-size="10">Network latency exceeding 5 seconds could delay alert delivery to the remote monitoring centre during an intrusion event.</text>
  
  <!-- Mitigations -->
  <text x="40" y="362" fill="#4b5f82" font-size="9">Mitigations:</text>
  <rect x="110" y="350" width="65" height="18" rx="4" fill="#38bdf8" opacity="0.1" stroke="#38bdf8" stroke-width="1" stroke-opacity="0.3"/>
  <text x="142" y="363" fill="#38bdf8" font-size="9" font-weight="600" text-anchor="middle">SYS-0001</text>
  <rect x="182" y="350" width="65" height="18" rx="4" fill="#38bdf8" opacity="0.1" stroke="#38bdf8" stroke-width="1" stroke-opacity="0.3"/>
  <text x="214" y="363" fill="#38bdf8" font-size="9" font-weight="600" text-anchor="middle">SYS-0008</text>
  
  <!-- Expand indicator -->
  <text x="845" y="289" fill="#4b5f82" font-size="14">▾</text>
  
  <!-- ==================== RISK CARD 3: MEDIUM ==================== -->
  <rect x="20" y="406" width="860" height="110" rx="8" fill="#141c32" stroke="#eab308" stroke-width="1" stroke-opacity="0.4"/>
  
  <!-- Left color bar -->
  <rect x="20" y="406" width="5" height="110" rx="2" fill="#eab308"/>
  
  <!-- Risk header -->
  <text x="40" y="431" fill="#e2e8f0" font-size="13" font-weight="600">RSK-0003</text>
  <rect x="110" y="418" width="60" height="18" rx="9" fill="#eab308" opacity="0.2" stroke="#eab308" stroke-width="1" stroke-opacity="0.4"/>
  <text x="140" y="431" fill="#eab308" font-size="9" font-weight="700" text-anchor="middle">Medium</text>
  <text x="185" y="431" fill="#e2e8f0" font-size="12">Power Interruption — Battery Backup Capacity</text>
  
  <!-- Risk details row -->
  <text x="40" y="456" fill="#4b5f82" font-size="9">Likelihood</text>
  <rect x="95" y="446" width="40" height="16" rx="3" fill="#0b0e14"/>
  <text x="115" y="458" fill="#eab308" font-size="10" font-weight="600" text-anchor="middle">3</text>
  
  <text x="150" y="456" fill="#4b5f82" font-size="9">Impact</text>
  <rect x="188" y="446" width="40" height="16" rx="3" fill="#0b0e14"/>
  <text x="208" y="458" fill="#eab308" font-size="10" font-weight="600" text-anchor="middle">3</text>
  
  <text x="245" y="456" fill="#4b5f82" font-size="9">Score</text>
  <rect x="278" y="446" width="40" height="16" rx="3" fill="#eab308" opacity="0.2"/>
  <text x="298" y="458" fill="#eab308" font-size="10" font-weight="700" text-anchor="middle">9</text>
  
  <text x="340" y="456" fill="#4b5f82" font-size="9">Category</text>
  <text x="395" y="456" fill="#94a3b8" font-size="10">Technical</text>
  
  <text x="470" y="456" fill="#4b5f82" font-size="9">Owner</text>
  <text x="505" y="456" fill="#94a3b8" font-size="10">M. Patel</text>
  
  <text x="590" y="456" fill="#4b5f82" font-size="9">Due</text>
  <text x="615" y="456" fill="#94a3b8" font-size="10">2026-05-01</text>
  
  <!-- Description -->
  <text x="40" y="482" fill="#94a3b8" font-size="10">Extended power outage beyond 4 hours may exceed battery backup capacity, leaving premises unmonitored.</text>
  
  <!-- Mitigations -->
  <text x="40" y="504" fill="#4b5f82" font-size="9">Mitigations:</text>
  <rect x="110" y="492" width="70" height="18" rx="4" fill="#38bdf8" opacity="0.1" stroke="#38bdf8" stroke-width="1" stroke-opacity="0.3"/>
  <text x="145" y="505" fill="#38bdf8" font-size="9" font-weight="600" text-anchor="middle">SUB-0007</text>
  
  <!-- Expand indicator -->
  <text x="845" y="431" fill="#4b5f82" font-size="14">▸</text>

  <!-- ==================== CALLOUT ANNOTATIONS ==================== -->
  <rect x="20" y="530" width="170" height="22" rx="4" fill="#f59e0b"/>
  <text x="105" y="545" fill="#0b0e14" font-size="10" font-weight="600" text-anchor="middle">① Color-Coded Severity</text>

  <rect x="250" y="530" width="190" height="22" rx="4" fill="#f59e0b"/>
  <text x="345" y="545" fill="#0b0e14" font-size="10" font-weight="600" text-anchor="middle">② Likelihood × Impact Score</text>

  <rect x="500" y="530" width="200" height="22" rx="4" fill="#f59e0b"/>
  <text x="600" y="545" fill="#0b0e14" font-size="10" font-weight="600" text-anchor="middle">③ Clickable Requirement Links</text>

  <rect x="760" y="530" width="120" height="22" rx="4" fill="#f59e0b"/>
  <text x="820" y="545" fill="#0b0e14" font-size="10" font-weight="600" text-anchor="middle">④ Expand/Edit</text>
</svg>
