<svg xmlns="http://www.w3.org/2000/svg" viewBox="0 0 900 560" font-family="'Segoe UI', system-ui, sans-serif">
  <!-- Background -->
  <rect width="900" height="560" fill="#0b0e14"/>
  
  <!-- Header bar -->
  <rect x="0" y="0" width="900" height="48" fill="#141c32" stroke="#1c2744" stroke-width="1"/>
  <text x="20" y="30" fill="#38bdf8" font-size="16" font-weight="700">RR</text>
  <text x="44" y="30" fill="#e2e8f0" font-size="14" font-weight="600">ReqRight</text>
  
  <!-- Nav tabs - Trace active -->
  <rect x="200" y="10" width="80" height="28" rx="4" fill="#1c2744"/>
  <text x="216" y="28" fill="#94a3b8" font-size="11">Dashboard</text>
  <rect x="288" y="10" width="65" height="28" rx="4" fill="#1c2744"/>
  <text x="303" y="28" fill="#94a3b8" font-size="11">Author</text>
  <rect x="361" y="10" width="72" height="28" rx="4" fill="#1c2744"/>
  <text x="374" y="28" fill="#94a3b8" font-size="11">Register</text>
  <rect x="441" y="10" width="55" height="28" rx="4" fill="#38bdf8"/>
  <text x="450" y="28" fill="#0b0e14" font-size="11" font-weight="600">Trace</text>
  <rect x="504" y="10" width="55" height="28" rx="4" fill="#1c2744"/>
  <text x="514" y="28" fill="#94a3b8" font-size="11">Risks</text>

  <!-- Title -->
  <text x="20" y="78" fill="#e2e8f0" font-size="13" font-weight="600">Traceability Matrix</text>
  <text x="180" y="78" fill="#4b5f82" font-size="10">Requirement hierarchy across 4 levels</text>

  <!-- ==================== LEVEL LABELS ==================== -->
  <rect x="20" y="90" width="180" height="22" rx="4" fill="#a78bfa" opacity="0.15"/>
  <text x="110" y="105" fill="#a78bfa" font-size="10" font-weight="600" text-anchor="middle">Stakeholder Needs</text>
  
  <rect x="230" y="90" width="200" height="22" rx="4" fill="#38bdf8" opacity="0.15"/>
  <text x="330" y="105" fill="#38bdf8" font-size="10" font-weight="600" text-anchor="middle">System Requirements</text>
  
  <rect x="470" y="90" width="200" height="22" rx="4" fill="#22c55e" opacity="0.15"/>
  <text x="570" y="105" fill="#22c55e" font-size="10" font-weight="600" text-anchor="middle">Subsystem Requirements</text>
  
  <rect x="710" y="90" width="170" height="22" rx="4" fill="#f97316" opacity="0.15"/>
  <text x="795" y="105" fill="#f97316" font-size="10" font-weight="600" text-anchor="middle">Component Requirements</text>

  <!-- ==================== STAKEHOLDER NEED 1 ==================== -->
  <rect x="20" y="125" width="180" height="55" rx="6" fill="#141c32" stroke="#a78bfa" stroke-width="1" stroke-opacity="0.5"/>
  <text x="32" y="145" fill="#a78bfa" font-size="10" font-weight="600">STK-0001</text>
  <rect x="140" y="134" width="48" height="16" rx="8" fill="#22c55e" opacity="0.2"/>
  <text x="164" y="146" fill="#22c55e" font-size="9" font-weight="700" text-anchor="middle">92% A</text>
  <text x="32" y="167" fill="#94a3b8" font-size="9">Secure Access Control</text>

  <!-- ==================== SYSTEM REQUIREMENTS ==================== -->
  <!-- SYS-0001 -->
  <rect x="230" y="118" width="200" height="50" rx="6" fill="#141c32" stroke="#38bdf8" stroke-width="1" stroke-opacity="0.5"/>
  <text x="242" y="138" fill="#38bdf8" font-size="10" font-weight="600">SYS-0001</text>
  <rect x="375" y="127" width="44" height="16" rx="8" fill="#22c55e" opacity="0.2"/>
  <text x="397" y="139" fill="#22c55e" font-size="9" font-weight="700" text-anchor="middle">87% A</text>
  <text x="242" y="157" fill="#94a3b8" font-size="9">User authentication within 3s</text>
  
  <!-- Connection: STK-0001 → SYS-0001 -->
  <line x1="200" y1="150" x2="230" y2="143" stroke="#4b5f82" stroke-width="1.5" stroke-dasharray="4,2"/>
  
  <!-- SYS-0002 -->
  <rect x="230" y="178" width="200" height="50" rx="6" fill="#141c32" stroke="#38bdf8" stroke-width="1" stroke-opacity="0.5"/>
  <text x="242" y="198" fill="#38bdf8" font-size="10" font-weight="600">SYS-0002</text>
  <rect x="375" y="187" width="44" height="16" rx="8" fill="#eab308" opacity="0.2"/>
  <text x="397" y="199" fill="#eab308" font-size="9" font-weight="700" text-anchor="middle">72% B</text>
  <text x="242" y="217" fill="#94a3b8" font-size="9">Motion detection coverage</text>
  
  <!-- Connection: STK-0001 → SYS-0002 -->
  <line x1="200" y1="155" x2="230" y2="200" stroke="#4b5f82" stroke-width="1.5" stroke-dasharray="4,2"/>

  <!-- ==================== SUBSYSTEM REQUIREMENTS ==================== -->
  <!-- SUB-0001 -->
  <rect x="470" y="118" width="200" height="50" rx="6" fill="#141c32" stroke="#22c55e" stroke-width="1" stroke-opacity="0.5"/>
  <text x="482" y="138" fill="#22c55e" font-size="10" font-weight="600">SUB-0001</text>
  <rect x="615" y="127" width="44" height="16" rx="8" fill="#22c55e" opacity="0.2"/>
  <text x="637" y="139" fill="#22c55e" font-size="9" font-weight="700" text-anchor="middle">91% A</text>
  <text x="482" y="157" fill="#94a3b8" font-size="9">Sensor response time ≤ 500ms</text>
  
  <!-- Connection: SYS-0001 → SUB-0001 -->
  <line x1="430" y1="143" x2="470" y2="143" stroke="#4b5f82" stroke-width="1.5" stroke-dasharray="4,2"/>
  
  <!-- SUB-0002 -->
  <rect x="470" y="178" width="200" height="50" rx="6" fill="#141c32" stroke="#22c55e" stroke-width="1" stroke-opacity="0.5"/>
  <text x="482" y="198" fill="#22c55e" font-size="10" font-weight="600">SUB-0002</text>
  <rect x="615" y="187" width="44" height="16" rx="8" fill="#22c55e" opacity="0.2"/>
  <text x="637" y="199" fill="#22c55e" font-size="9" font-weight="700" text-anchor="middle">85% A</text>
  <text x="482" y="217" fill="#94a3b8" font-size="9">Alert subsystem notification</text>
  
  <!-- Connection: SYS-0001 → SUB-0002 -->
  <line x1="430" y1="148" x2="470" y2="198" stroke="#4b5f82" stroke-width="1.5" stroke-dasharray="4,2"/>
  
  <!-- SUB-0003 -->
  <rect x="470" y="238" width="200" height="50" rx="6" fill="#141c32" stroke="#22c55e" stroke-width="1" stroke-opacity="0.5"/>
  <text x="482" y="258" fill="#22c55e" font-size="10" font-weight="600">SUB-0003</text>
  <rect x="615" y="247" width="44" height="16" rx="8" fill="#eab308" opacity="0.2"/>
  <text x="637" y="259" fill="#eab308" font-size="9" font-weight="700" text-anchor="middle">76% B</text>
  <text x="482" y="277" fill="#94a3b8" font-size="9">PIR sensor coverage area</text>
  
  <!-- Connection: SYS-0002 → SUB-0003 -->
  <line x1="430" y1="203" x2="470" y2="258" stroke="#4b5f82" stroke-width="1.5" stroke-dasharray="4,2"/>

  <!-- ==================== COMPONENT REQUIREMENTS ==================== -->
  <!-- CMP-0001 -->
  <rect x="710" y="118" width="170" height="50" rx="6" fill="#141c32" stroke="#f97316" stroke-width="1" stroke-opacity="0.5"/>
  <text x="722" y="138" fill="#f97316" font-size="10" font-weight="600">CMP-0001</text>
  <rect x="825" y="127" width="44" height="16" rx="8" fill="#22c55e" opacity="0.2"/>
  <text x="847" y="139" fill="#22c55e" font-size="9" font-weight="700" text-anchor="middle">88% A</text>
  <text x="722" y="157" fill="#94a3b8" font-size="9">PIR module sensitivity</text>
  
  <!-- Connection: SUB-0001 → CMP-0001 -->
  <line x1="670" y1="143" x2="710" y2="143" stroke="#4b5f82" stroke-width="1.5" stroke-dasharray="4,2"/>
  
  <!-- CMP-0002 -->
  <rect x="710" y="178" width="170" height="50" rx="6" fill="#141c32" stroke="#f97316" stroke-width="1" stroke-opacity="0.5"/>
  <text x="722" y="198" fill="#f97316" font-size="10" font-weight="600">CMP-0002</text>
  <rect x="825" y="187" width="44" height="16" rx="8" fill="#22c55e" opacity="0.2"/>
  <text x="847" y="199" fill="#22c55e" font-size="9" font-weight="700" text-anchor="middle">82% A</text>
  <text x="722" y="217" fill="#94a3b8" font-size="9">Buzzer output ≥ 85 dB</text>
  
  <!-- Connection: SUB-0002 → CMP-0002 -->
  <line x1="670" y1="198" x2="710" y2="198" stroke="#4b5f82" stroke-width="1.5" stroke-dasharray="4,2"/>

  <!-- ==================== SECOND STAKEHOLDER NEED ==================== -->
  <rect x="20" y="310" width="180" height="55" rx="6" fill="#141c32" stroke="#a78bfa" stroke-width="1" stroke-opacity="0.5"/>
  <text x="32" y="330" fill="#a78bfa" font-size="10" font-weight="600">STK-0002</text>
  <rect x="140" y="319" width="48" height="16" rx="8" fill="#22c55e" opacity="0.2"/>
  <text x="164" y="331" fill="#22c55e" font-size="9" font-weight="700" text-anchor="middle">88% A</text>
  <text x="32" y="352" fill="#94a3b8" font-size="9">24/7 System Availability</text>

  <!-- SYS-0005 linked to STK-0002 -->
  <rect x="230" y="310" width="200" height="50" rx="6" fill="#141c32" stroke="#38bdf8" stroke-width="1" stroke-opacity="0.5"/>
  <text x="242" y="330" fill="#38bdf8" font-size="10" font-weight="600">SYS-0005</text>
  <rect x="375" y="319" width="44" height="16" rx="8" fill="#22c55e" opacity="0.2"/>
  <text x="397" y="331" fill="#22c55e" font-size="9" font-weight="700" text-anchor="middle">84% A</text>
  <text x="242" y="349" fill="#94a3b8" font-size="9">System uptime ≥ 99.9%</text>
  
  <!-- Connection: STK-0002 → SYS-0005 -->
  <line x1="200" y1="335" x2="230" y2="335" stroke="#4b5f82" stroke-width="1.5" stroke-dasharray="4,2"/>

  <!-- ==================== ORPHAN DETECTION PANEL ==================== -->
  <rect x="20" y="395" width="860" height="120" rx="8" fill="#141c32" stroke="#ef4444" stroke-width="1" stroke-opacity="0.3"/>
  
  <!-- Orphan header -->
  <rect x="20" y="395" width="860" height="32" rx="8" fill="#ef4444" opacity="0.08"/>
  <rect x="20" y="420" width="860" height="7" fill="#141c32"/>
  <text x="40" y="416" fill="#ef4444" font-size="12" font-weight="600">⚠ Orphan Requirements — Not Linked to Any Parent</text>
  <text x="370" y="416" fill="#4b5f82" font-size="10">These requirements need a parent link in the hierarchy</text>
  
  <!-- Orphan 1 -->
  <rect x="35" y="435" width="250" height="35" rx="5" fill="#0b0e14" stroke="#ef4444" stroke-width="1" stroke-opacity="0.3"/>
  <text x="47" y="452" fill="#ef4444" font-size="10" font-weight="600">SYS-0009</text>
  <text x="110" y="452" fill="#94a3b8" font-size="9">— Data encryption at rest</text>
  <rect x="240" y="442" width="35" height="16" rx="8" fill="#eab308" opacity="0.2"/>
  <text x="257" y="454" fill="#eab308" font-size="9" font-weight="700" text-anchor="middle">68%</text>
  
  <!-- Orphan 2 -->
  <rect x="300" y="435" width="260" height="35" rx="5" fill="#0b0e14" stroke="#ef4444" stroke-width="1" stroke-opacity="0.3"/>
  <text x="312" y="452" fill="#ef4444" font-size="10" font-weight="600">SUB-0008</text>
  <text x="378" y="452" fill="#94a3b8" font-size="9">— Camera night vision mode</text>
  <rect x="515" y="442" width="35" height="16" rx="8" fill="#22c55e" opacity="0.2"/>
  <text x="532" y="454" fill="#22c55e" font-size="9" font-weight="700" text-anchor="middle">81%</text>
  
  <!-- Orphan 3 -->
  <rect x="575" y="435" width="290" height="35" rx="5" fill="#0b0e14" stroke="#ef4444" stroke-width="1" stroke-opacity="0.3"/>
  <text x="587" y="452" fill="#ef4444" font-size="10" font-weight="600">CMP-0005</text>
  <text x="653" y="452" fill="#94a3b8" font-size="9">— Battery charging circuit spec</text>
  <rect x="820" y="442" width="35" height="16" rx="8" fill="#ef4444" opacity="0.2"/>
  <text x="837" y="454" fill="#ef4444" font-size="9" font-weight="700" text-anchor="middle">45%</text>
  
  <!-- Orphan help text -->
  <text x="450" y="498" fill="#4b5f82" font-size="9" text-anchor="middle">Click any orphan to open it in the Author view and assign a parent requirement</text>

  <!-- ==================== CALLOUT ANNOTATIONS ==================== -->
  <rect x="30" y="530" width="210" height="22" rx="4" fill="#f59e0b"/>
  <text x="135" y="545" fill="#0b0e14" font-size="10" font-weight="600" text-anchor="middle">① 4-Level Requirement Hierarchy</text>

  <rect x="310" y="530" width="170" height="22" rx="4" fill="#f59e0b"/>
  <text x="395" y="545" fill="#0b0e14" font-size="10" font-weight="600" text-anchor="middle">② Quality Score Badges</text>

  <rect x="550" y="530" width="170" height="22" rx="4" fill="#f59e0b"/>
  <text x="635" y="545" fill="#0b0e14" font-size="10" font-weight="600" text-anchor="middle">③ Parent-Child Links</text>

  <rect x="780" y="530" width="100" height="22" rx="4" fill="#f59e0b"/>
  <text x="830" y="545" fill="#0b0e14" font-size="10" font-weight="600" text-anchor="middle">④ Orphans</text>
</svg>
